<svg width="28" height="26" viewBox="0 0 28 26" fill="none" xmlns="http://www.w3.org/2000/svg">
<path d="M18.0007 22.5032C19.138 22.8334 20.3164 23.0004 21.5006 22.9992C23.4051 23.002 25.2848 22.5677 26.9951 21.7299C27.0456 20.5349 26.7052 19.356 26.0255 18.3718C25.3457 17.3876 24.3637 16.6519 23.2281 16.2761C22.0926 15.9003 20.8655 15.9049 19.7329 16.2893C18.6002 16.6736 17.6237 17.4168 16.9514 18.406M18.0007 22.5032V22.4992C18.0007 21.0153 17.6194 19.6193 16.9514 18.406M18.0007 22.5032V22.6445C15.4348 24.1899 12.495 25.0042 9.49967 24.9991C6.39178 24.9991 3.48388 24.1392 1.0013 22.6445L0.999966 22.4992C0.998943 20.6119 1.6261 18.7779 2.78255 17.2864C3.939 15.7949 5.55897 14.7307 7.38706 14.2616C9.21515 13.7925 11.1474 13.9452 12.8791 14.6956C14.6108 15.446 16.0436 16.7514 16.9514 18.406M14.0008 5.49981C14.0008 6.69324 13.5268 7.83779 12.6829 8.68168C11.839 9.52556 10.6944 9.99965 9.501 9.99965C8.30757 9.99965 7.16302 9.52556 6.31913 8.68168C5.47525 7.83779 5.00116 6.69324 5.00116 5.49981C5.00116 4.30638 5.47525 3.16182 6.31913 2.31794C7.16302 1.47405 8.30757 0.999965 9.501 0.999965C10.6944 0.999965 11.839 1.47405 12.6829 2.31794C13.5268 3.16182 14.0008 4.30638 14.0008 5.49981ZM25.0005 8.4997C25.0005 9.42793 24.6317 10.3181 23.9754 10.9745C23.319 11.6308 22.4288 11.9996 21.5006 11.9996C20.5724 11.9996 19.6822 11.6308 19.0258 10.9745C18.3694 10.3181 18.0007 9.42793 18.0007 8.4997C18.0007 7.57148 18.3694 6.68127 19.0258 6.02492C19.6822 5.36856 20.5724 4.99983 21.5006 4.99983C22.4288 4.99983 23.319 5.36856 23.9754 6.02492C24.6317 6.68127 25.0005 7.57148 25.0005 8.4997Z" stroke="white" stroke-linecap="round" stroke-linejoin="round"/>
</svg>
