<svg width="53" height="66" viewBox="0 0 53 66" fill="none" xmlns="http://www.w3.org/2000/svg">
<g clip-path="url(#clip0_6047_951)">
<path d="M12.4495 63.3366C12.1151 63.2004 11.3824 62.7446 10.3153 62.7446C8.53676 62.7446 7.55146 63.1323 7.11394 63.3366C6.29582 63.7154 4.97971 64.5204 3.9126 66.0002H14.9394C14.7367 65.1005 13.2321 63.6562 12.4495 63.3366Z" fill="url(#paint0_linear_6047_951)"/>
<path d="M52.9714 56.6269C52.9714 52.7764 50.8656 46.7624 44.463 45.8745C41.7987 47.4579 35.0012 55.1944 33.4717 65.7899L40.1945 65.7041C47.3086 65.7041 52.9999 62.7445 52.9999 56.5292C52.9999 56.473 52.9999 55.6413 52.9999 56.5292L52.9714 56.6269Z" fill="url(#paint1_linear_6047_951)"/>
<path d="M17.0738 42.9147L17.0453 38.0165C14.0432 37.1494 11.4216 35.5985 9.45459 33.5859L9.60399 46.7623C13.161 44.0986 14.2282 44.0986 17.0738 42.9147Z" fill="url(#paint2_linear_6047_951)"/>
<path d="M43.7446 45.6998C42.3289 45.2736 40.81 45.0368 39.2236 45.0161C38.0035 46.8511 35.5776 50.1837 30.6795 51.3498C23.8322 52.9776 18.4967 51.7937 11.7383 47.3542C8.18123 48.8341 7.41647 56.1503 7.11768 61.4806C9.09895 60.6756 11.1869 60.6105 12.9121 61.3149C14.9396 62.1406 16.1561 63.8394 16.4443 65.8816L29.9112 65.8106C31.4052 55.289 39.6753 48.4641 43.7446 45.6998Z" fill="url(#paint3_linear_6047_951)"/>
<path d="M5.33584 52.6816C4.98013 52.9776 5.25759 52.6816 4.96235 53.019C4.58531 53.4482 4.56752 53.5814 4.2047 54.0194C3.47906 54.8955 2.78544 55.7922 2.1843 56.7304C0.925105 58.6956 0.231475 60.7407 0.000267133 62.9516C-0.0495315 63.437 -0.0281918 63.9342 0.153218 64.4018C0.384426 64.9997 1.231 66.0148 2.13093 65.7041C2.13093 65.7041 2.48665 65.1121 2.82812 64.7303C3.03799 64.4936 3.33677 64.1591 3.55375 63.9283C3.28342 59.4503 4.24738 55.7952 5.33228 52.6816H5.33584Z" fill="url(#paint4_linear_6047_951)"/>
<path d="M35.8979 33.3966C32.7962 36.6788 27.9871 38.7949 22.5875 38.7949C21.9365 38.7949 21.2927 38.7624 20.6595 38.7002V44.1371L19.2189 44.3857C19.1834 44.3916 15.9109 44.9865 12.1084 46.9103C18.9486 49.497 24.7217 50.0593 29.296 48.5677C32.878 47.3986 34.5712 45.2292 35.5742 43.7997L35.9299 42.7401C35.9299 42.7401 35.9086 42.7401 35.9015 42.7401V42.015C35.8517 42.0091 35.7556 42.0091 35.7556 41.9973H35.9015V33.3906L35.8979 33.3966Z" fill="url(#paint5_linear_6047_951)"/>
<path d="M22.5872 35.7882C29.9254 35.7882 35.8977 30.819 35.8977 24.7132V18.202C35.8977 17.8735 35.8763 17.5479 35.8408 17.2283C35.478 15.0382 33.2228 13.3423 30.491 13.3423H14.6835C12.1686 13.3423 10.0593 14.7777 9.45459 16.7163V26.5097C10.4897 31.7631 15.9818 35.7882 22.5872 35.7882Z" fill="url(#paint6_linear_6047_951)"/>
<path d="M30.4908 10.3353C35.4671 10.3353 39.5115 13.7034 39.5115 17.841V24.7133L39.483 42.9151C43.4313 43.1459 45.9071 43.7349 48.7314 45.5787L48.7029 16.3523C48.7029 7.34904 39.8992 0.0239258 29.0787 0.0239258C20.4173 0.0239258 13.0506 4.72088 10.4575 11.2114C11.7203 10.652 13.1573 10.3353 14.6833 10.3353H30.4908Z" fill="url(#paint7_linear_6047_951)"/>
</g>
<defs>
<linearGradient id="paint0_linear_6047_951" x1="12.5918" y1="73.0087" x2="-9.01778" y2="3.55247" gradientUnits="userSpaceOnUse">
<stop stop-color="#1E0A51"/>
<stop offset="0.66" stop-color="#696DA1"/>
<stop offset="1" stop-color="#A5BBE0"/>
</linearGradient>
<linearGradient id="paint1_linear_6047_951" x1="43.748" y1="61.0663" x2="24.9586" y2="0.674368" gradientUnits="userSpaceOnUse">
<stop stop-color="#1E0A51"/>
<stop offset="1" stop-color="#A5BBE0"/>
</linearGradient>
<linearGradient id="paint2_linear_6047_951" x1="13.3389" y1="31.8753" x2="13.1764" y2="52.0251" gradientUnits="userSpaceOnUse">
<stop stop-color="#1E0A51"/>
<stop offset="1" stop-color="#A5BBE0"/>
</linearGradient>
<linearGradient id="paint3_linear_6047_951" x1="31.5119" y1="67.1217" x2="9.90231" y2="-2.33452" gradientUnits="userSpaceOnUse">
<stop stop-color="#1E0A51"/>
<stop offset="1" stop-color="#A5BBE0"/>
</linearGradient>
<linearGradient id="paint4_linear_6047_951" x1="9.3553" y1="73.2482" x2="-11.0873" y2="7.54141" gradientUnits="userSpaceOnUse">
<stop stop-color="#1E0A51"/>
<stop offset="1" stop-color="#A5BBE0"/>
</linearGradient>
<linearGradient id="paint5_linear_6047_951" x1="35.5565" y1="65.8638" x2="13.9469" y2="-3.59238" gradientUnits="userSpaceOnUse">
<stop stop-color="#1E0A51"/>
<stop offset="1" stop-color="#A5BBE0"/>
</linearGradient>
<linearGradient id="paint6_linear_6047_951" x1="22.2422" y1="39.686" x2="23.1017" y2="-14.5613" gradientUnits="userSpaceOnUse">
<stop offset="0.15" stop-color="#1E0A51"/>
<stop offset="1" stop-color="#A5BBE0"/>
</linearGradient>
<linearGradient id="paint7_linear_6047_951" x1="29.9928" y1="25.0891" x2="27.4066" y2="56.0503" gradientUnits="userSpaceOnUse">
<stop stop-color="#1E0A51"/>
<stop offset="1" stop-color="#A5BBE0"/>
</linearGradient>
<clipPath id="clip0_6047_951">
<rect width="53" height="66" fill="white"/>
</clipPath>
</defs>
</svg>
