<svg width="258" height="66" viewBox="0 0 258 66" fill="none" xmlns="http://www.w3.org/2000/svg">
<g clip-path="url(#clip0_6047_951)">
<path d="M12.4495 63.3366C12.1151 63.2004 11.3824 62.7446 10.3153 62.7446C8.53676 62.7446 7.55146 63.1323 7.11394 63.3366C6.29582 63.7154 4.97971 64.5204 3.9126 66.0002H14.9394C14.7367 65.1005 13.2321 63.6562 12.4495 63.3366Z" fill="url(#paint0_linear_6047_951)"/>
<path d="M52.9714 56.6269C52.9714 52.7764 50.8656 46.7624 44.463 45.8745C41.7987 47.4579 35.0012 55.1944 33.4717 65.7899L40.1945 65.7041C47.3086 65.7041 52.9999 62.7445 52.9999 56.5292C52.9999 56.473 52.9999 55.6413 52.9999 56.5292L52.9714 56.6269Z" fill="url(#paint1_linear_6047_951)"/>
<path d="M17.0738 42.9147L17.0453 38.0165C14.0432 37.1494 11.4216 35.5985 9.45459 33.5859L9.60399 46.7623C13.161 44.0986 14.2282 44.0986 17.0738 42.9147Z" fill="url(#paint2_linear_6047_951)"/>
<path d="M43.7446 45.6998C42.3289 45.2736 40.81 45.0368 39.2236 45.0161C38.0035 46.8511 35.5776 50.1837 30.6795 51.3498C23.8322 52.9776 18.4967 51.7937 11.7383 47.3542C8.18123 48.8341 7.41647 56.1503 7.11768 61.4806C9.09895 60.6756 11.1869 60.6105 12.9121 61.3149C14.9396 62.1406 16.1561 63.8394 16.4443 65.8816L29.9112 65.8106C31.4052 55.289 39.6753 48.4641 43.7446 45.6998Z" fill="url(#paint3_linear_6047_951)"/>
<path d="M5.33584 52.6816C4.98013 52.9776 5.25759 52.6816 4.96235 53.019C4.58531 53.4482 4.56752 53.5814 4.2047 54.0194C3.47906 54.8955 2.78544 55.7922 2.1843 56.7304C0.925105 58.6956 0.231475 60.7407 0.000267133 62.9516C-0.0495315 63.437 -0.0281918 63.9342 0.153218 64.4018C0.384426 64.9997 1.231 66.0148 2.13093 65.7041C2.13093 65.7041 2.48665 65.1121 2.82812 64.7303C3.03799 64.4936 3.33677 64.1591 3.55375 63.9283C3.28342 59.4503 4.24738 55.7952 5.33228 52.6816H5.33584Z" fill="url(#paint4_linear_6047_951)"/>
<path d="M35.8979 33.3966C32.7962 36.6788 27.9871 38.7949 22.5875 38.7949C21.9365 38.7949 21.2927 38.7624 20.6595 38.7002V44.1371L19.2189 44.3857C19.1834 44.3916 15.9109 44.9865 12.1084 46.9103C18.9486 49.497 24.7217 50.0593 29.296 48.5677C32.878 47.3986 34.5712 45.2292 35.5742 43.7997L35.9299 42.7401C35.9299 42.7401 35.9086 42.7401 35.9015 42.7401V42.015C35.8517 42.0091 35.7556 42.0091 35.7556 41.9973H35.9015V33.3906L35.8979 33.3966Z" fill="url(#paint5_linear_6047_951)"/>
<path d="M22.5872 35.7882C29.9254 35.7882 35.8977 30.819 35.8977 24.7132V18.202C35.8977 17.8735 35.8763 17.5479 35.8408 17.2283C35.478 15.0382 33.2228 13.3423 30.491 13.3423H14.6835C12.1686 13.3423 10.0593 14.7777 9.45459 16.7163V26.5097C10.4897 31.7631 15.9818 35.7882 22.5872 35.7882Z" fill="url(#paint6_linear_6047_951)"/>
<path d="M30.4908 10.3353C35.4671 10.3353 39.5115 13.7034 39.5115 17.841V24.7133L39.483 42.9151C43.4313 43.1459 45.9071 43.7349 48.7314 45.5787L48.7029 16.3523C48.7029 7.34904 39.8992 0.0239258 29.0787 0.0239258C20.4173 0.0239258 13.0506 4.72088 10.4575 11.2114C11.7203 10.652 13.1573 10.3353 14.6833 10.3353H30.4908Z" fill="url(#paint7_linear_6047_951)"/>
<path d="M61.1069 19.5455H69.8299L79.043 42.0227H79.435L88.6481 19.5455H97.3711V53H90.5103V31.2251H90.2326L81.5749 52.8366H76.9031L68.2454 31.1435H67.9677V53H61.1069V19.5455ZM114.405 53.4901C111.867 53.4901 109.673 52.951 107.822 51.8729C105.981 50.7839 104.56 49.2701 103.558 47.3317C102.556 45.3823 102.055 43.1226 102.055 40.5526C102.055 37.9607 102.556 35.6955 103.558 33.7571C104.56 31.8078 105.981 30.294 107.822 29.2159C109.673 28.1269 111.867 27.5824 114.405 27.5824C116.942 27.5824 119.131 28.1269 120.971 29.2159C122.823 30.294 124.249 31.8078 125.251 33.7571C126.253 35.6955 126.754 37.9607 126.754 40.5526C126.754 43.1226 126.253 45.3823 125.251 47.3317C124.249 49.2701 122.823 50.7839 120.971 51.8729C119.131 52.951 116.942 53.4901 114.405 53.4901ZM114.437 48.0994C115.592 48.0994 116.555 47.7727 117.329 47.1193C118.102 46.455 118.684 45.5511 119.077 44.4077C119.479 43.2642 119.681 41.9628 119.681 40.5036C119.681 39.0443 119.479 37.7429 119.077 36.5994C118.684 35.456 118.102 34.5521 117.329 33.8878C116.555 33.2235 115.592 32.8913 114.437 32.8913C113.272 32.8913 112.292 33.2235 111.497 33.8878C110.713 34.5521 110.119 35.456 109.716 36.5994C109.324 37.7429 109.128 39.0443 109.128 40.5036C109.128 41.9628 109.324 43.2642 109.716 44.4077C110.119 45.5511 110.713 46.455 111.497 47.1193C112.292 47.7727 113.272 48.0994 114.437 48.0994ZM138.238 38.4943V53H131.279V27.9091H137.911V32.3359H138.205C138.76 30.8767 139.692 29.7223 140.998 28.8729C142.305 28.0125 143.89 27.5824 145.752 27.5824C147.494 27.5824 149.014 27.9635 150.309 28.7259C151.605 29.4882 152.613 30.5772 153.331 31.9929C154.05 33.3977 154.41 35.0748 154.41 37.0241V53H147.451V38.2656C147.462 36.7301 147.07 35.5322 146.275 34.6719C145.48 33.8007 144.385 33.3651 142.991 33.3651C142.055 33.3651 141.227 33.5665 140.508 33.9695C139.8 34.3724 139.245 34.9605 138.842 35.7337C138.45 36.496 138.249 37.4162 138.238 38.4943ZM167.049 53.4737C165.448 53.4737 164.022 53.196 162.769 52.6406C161.517 52.0743 160.526 51.2412 159.796 50.1413C159.077 49.0305 158.718 47.6475 158.718 45.9922C158.718 44.5982 158.974 43.4276 159.486 42.4801C159.998 41.5327 160.695 40.7704 161.577 40.1932C162.459 39.616 163.461 39.1804 164.582 38.8864C165.715 38.5923 166.902 38.3854 168.143 38.2656C169.603 38.1132 170.779 37.9716 171.672 37.8409C172.565 37.6993 173.213 37.4924 173.616 37.2202C174.019 36.9479 174.22 36.545 174.22 36.0114V35.9134C174.22 34.8788 173.893 34.0784 173.24 33.5121C172.598 32.9458 171.683 32.6626 170.496 32.6626C169.243 32.6626 168.247 32.9403 167.506 33.4957C166.766 34.0402 166.276 34.7263 166.036 35.554L159.6 35.0312C159.927 33.5066 160.569 32.1889 161.528 31.0781C162.486 29.9564 163.722 29.0961 165.236 28.4972C166.76 27.8873 168.525 27.5824 170.528 27.5824C171.922 27.5824 173.256 27.7457 174.531 28.0724C175.816 28.3991 176.954 28.9055 177.945 29.5916C178.946 30.2777 179.736 31.1598 180.313 32.2379C180.89 33.3052 181.179 34.5848 181.179 36.0767V53H174.58V49.5206H174.384C173.981 50.3047 173.442 50.9962 172.766 51.5952C172.091 52.1832 171.28 52.6461 170.332 52.9837C169.385 53.3104 168.29 53.4737 167.049 53.4737ZM169.042 48.6712C170.066 48.6712 170.969 48.4697 171.754 48.0668C172.538 47.6529 173.153 47.0975 173.599 46.4006C174.046 45.7036 174.269 44.9141 174.269 44.032V41.3693C174.051 41.5109 173.752 41.6416 173.371 41.7614C173 41.8703 172.581 41.9737 172.113 42.0717C171.645 42.1589 171.176 42.2405 170.708 42.3168C170.24 42.3821 169.815 42.442 169.434 42.4964C168.617 42.6162 167.904 42.8068 167.294 43.0682C166.684 43.3295 166.21 43.6835 165.873 44.13C165.535 44.5656 165.366 45.1101 165.366 45.7635C165.366 46.7109 165.71 47.4351 166.396 47.9361C167.093 48.4261 167.975 48.6712 169.042 48.6712ZM216.226 31.2578H209.071C208.941 30.3321 208.674 29.5099 208.271 28.7912C207.868 28.0616 207.351 27.4408 206.719 26.929C206.087 26.4171 205.358 26.0251 204.53 25.7528C203.713 25.4806 202.826 25.3445 201.868 25.3445C200.136 25.3445 198.628 25.7746 197.343 26.6349C196.058 27.4844 195.061 28.7259 194.353 30.3594C193.645 31.982 193.292 33.9531 193.292 36.2727C193.292 38.6577 193.645 40.6615 194.353 42.2841C195.072 43.9067 196.074 45.1319 197.359 45.9595C198.644 46.7872 200.131 47.201 201.819 47.201C202.766 47.201 203.643 47.0758 204.449 46.8253C205.265 46.5748 205.989 46.21 206.621 45.7308C207.253 45.2408 207.775 44.6473 208.189 43.9503C208.614 43.2533 208.908 42.4583 209.071 41.5653L216.226 41.598C216.041 43.1335 215.578 44.6146 214.838 46.0412C214.108 47.4569 213.123 48.7256 211.881 49.8473C210.65 50.9581 209.18 51.8402 207.471 52.4936C205.772 53.1361 203.85 53.4574 201.704 53.4574C198.72 53.4574 196.052 52.7822 193.7 51.4318C191.359 50.0814 189.507 48.1267 188.146 45.5675C186.796 43.0083 186.12 39.91 186.12 36.2727C186.12 32.6245 186.806 29.5208 188.179 26.9616C189.551 24.4025 191.413 22.4531 193.765 21.1136C196.118 19.7633 198.764 19.0881 201.704 19.0881C203.643 19.0881 205.44 19.3603 207.095 19.9048C208.761 20.4493 210.237 21.2443 211.522 22.2898C212.807 23.3243 213.852 24.593 214.658 26.0959C215.475 27.5987 215.998 29.3194 216.226 31.2578ZM227.342 19.5455L235.428 44.9631H235.739L243.841 19.5455H251.682L240.149 53H231.034L219.485 19.5455H227.342Z" fill="#3F0E56"/>
</g>
<defs>
<linearGradient id="paint0_linear_6047_951" x1="12.5918" y1="73.0087" x2="-9.01778" y2="3.55247" gradientUnits="userSpaceOnUse">
<stop stop-color="#1E0A51"/>
<stop offset="0.66" stop-color="#696DA1"/>
<stop offset="1" stop-color="#A5BBE0"/>
</linearGradient>
<linearGradient id="paint1_linear_6047_951" x1="43.748" y1="61.0663" x2="24.9586" y2="0.674368" gradientUnits="userSpaceOnUse">
<stop stop-color="#1E0A51"/>
<stop offset="1" stop-color="#A5BBE0"/>
</linearGradient>
<linearGradient id="paint2_linear_6047_951" x1="13.3389" y1="31.8753" x2="13.1764" y2="52.0251" gradientUnits="userSpaceOnUse">
<stop stop-color="#1E0A51"/>
<stop offset="1" stop-color="#A5BBE0"/>
</linearGradient>
<linearGradient id="paint3_linear_6047_951" x1="31.5119" y1="67.1217" x2="9.90231" y2="-2.33452" gradientUnits="userSpaceOnUse">
<stop stop-color="#1E0A51"/>
<stop offset="1" stop-color="#A5BBE0"/>
</linearGradient>
<linearGradient id="paint4_linear_6047_951" x1="9.3553" y1="73.2482" x2="-11.0873" y2="7.54141" gradientUnits="userSpaceOnUse">
<stop stop-color="#1E0A51"/>
<stop offset="1" stop-color="#A5BBE0"/>
</linearGradient>
<linearGradient id="paint5_linear_6047_951" x1="35.5565" y1="65.8638" x2="13.9469" y2="-3.59238" gradientUnits="userSpaceOnUse">
<stop stop-color="#1E0A51"/>
<stop offset="1" stop-color="#A5BBE0"/>
</linearGradient>
<linearGradient id="paint6_linear_6047_951" x1="22.2422" y1="39.686" x2="23.1017" y2="-14.5613" gradientUnits="userSpaceOnUse">
<stop offset="0.15" stop-color="#1E0A51"/>
<stop offset="1" stop-color="#A5BBE0"/>
</linearGradient>
<linearGradient id="paint7_linear_6047_951" x1="29.9928" y1="25.0891" x2="27.4066" y2="56.0503" gradientUnits="userSpaceOnUse">
<stop stop-color="#1E0A51"/>
<stop offset="1" stop-color="#A5BBE0"/>
</linearGradient>
<clipPath id="clip0_6047_951">
<rect width="258" height="66" fill="white"/>
</clipPath>
</defs>
</svg>
